<?xml version="1.0" encoding="utf-8"?>
<!-- Generator: Adobe Illustrator 16.0.4, SVG Export Plug-In . SVG Version: 6.00 Build 0)  -->
<!DOCTYPE svg PUBLIC "-//W3C//DTD SVG 1.1//EN" "http://www.w3.org/Graphics/SVG/1.1/DTD/svg11.dtd">
<svg version="1.1" id="Layer_1" xmlns="http://www.w3.org/2000/svg" xmlns:xlink="http://www.w3.org/1999/xlink" x="0px" y="0px"
	 width="500px" height="500px" viewBox="0 0 500 500" enable-background="new 0 0 500 500" xml:space="preserve">
<g>
	<path d="M327.9,261.122l-167.56,167.562c-2.564,2.598-5.402,4.888-8.444,6.904c-2.871,1.914-6.05,3.555-9.332,4.854
		c-3.179,1.3-6.528,2.291-9.98,2.94c-6.803,1.3-13.913,1.3-20.715,0c-3.417-0.649-6.803-1.641-10.016-2.94
		c-3.247-1.299-6.392-2.939-9.298-4.854c-3.008-2.017-5.845-4.307-8.442-6.904l-12.579-12.579c-2.563-2.564-4.889-5.402-6.871-8.409
		c-1.948-2.939-3.589-6.085-4.888-9.366c-1.265-3.213-2.289-6.562-2.974-9.981c-0.615-3.418-0.957-6.87-0.957-10.391
		c0-3.419,0.342-6.906,0.957-10.323c0.685-3.419,1.709-6.77,2.974-9.981c1.299-3.281,2.939-6.427,4.888-9.366
		c1.982-3.008,4.308-5.811,6.871-8.408l33.498-33.499l-27.722-27.756L43.812,312.19c-4.444,4.444-8.409,9.332-11.896,14.562
		c-3.351,5.094-6.188,10.562-8.512,16.201c-2.222,5.538-3.931,11.35-5.059,17.297c-1.129,5.812-1.709,11.759-1.709,17.707
		c0,5.98,0.58,11.963,1.709,17.809c1.128,5.913,2.837,11.69,5.059,17.262c2.324,5.674,5.161,11.144,8.512,16.237
		c3.486,5.229,7.451,10.117,11.896,14.562l12.579,12.613c4.443,4.443,9.365,8.408,14.596,11.827
		c5.093,3.384,10.528,6.255,16.202,8.544c5.571,2.223,11.383,3.967,17.296,5.095c5.812,1.128,11.793,1.675,17.741,1.675
		c5.947,0,11.93-0.547,17.74-1.675c5.914-1.128,11.725-2.872,17.297-5.095c5.674-2.289,11.143-5.16,16.202-8.544
		c5.229-3.419,10.152-7.384,14.596-11.827l167.562-167.63L327.9,261.122z"/>
	<path d="M172.064,239.348L339.626,71.786c2.598-2.58,5.435-4.905,8.442-6.888c2.94-1.931,6.051-3.571,9.332-4.904
		c3.247-1.3,6.598-2.273,9.981-2.94c6.837-1.298,13.946-1.298,20.749,0c3.418,0.667,6.768,1.641,9.98,2.94
		c3.282,1.333,6.427,2.974,9.332,4.904c3.042,1.982,5.88,4.308,8.443,6.888l12.579,12.562c2.563,2.599,4.888,5.4,6.87,8.442
		c1.914,2.905,3.556,6.052,4.889,9.315c1.298,3.213,2.289,6.58,2.939,9.999c0.684,3.401,0.991,6.904,0.991,10.355
		c0,3.471-0.308,6.939-0.991,10.375c-0.65,3.402-1.642,6.786-2.939,9.965c-1.333,3.298-2.975,6.409-4.889,9.349
		c-1.982,3.024-4.307,5.845-6.87,8.442l-33.533,33.499l27.722,27.722l33.499-33.498c4.478-4.479,8.478-9.383,11.896-14.597
		c3.384-5.11,6.255-10.578,8.512-16.253c2.256-5.521,3.965-11.332,5.093-17.245c1.128-5.812,1.708-11.793,1.708-17.759
		c0-5.947-0.58-11.928-1.708-17.774c-1.128-5.879-2.837-11.69-5.093-17.262c-2.257-5.657-5.128-11.126-8.512-16.202
		c-3.418-5.247-7.452-10.152-11.861-14.597l-12.579-12.562c-4.443-4.443-9.366-8.46-14.596-11.896
		c-5.094-3.367-10.563-6.237-16.236-8.511c-5.538-2.238-11.349-3.948-17.229-5.076c-11.69-2.273-23.895-2.273-35.55,0
		c-5.913,1.128-11.724,2.838-17.227,5.076c-5.675,2.273-11.145,5.144-16.271,8.511c-5.196,3.436-10.118,7.452-14.562,11.896
		L144.342,211.625L172.064,239.348z"/>
	<path d="M23.439,157.498c2.257,5.675,5.127,11.109,8.478,16.202c3.452,5.231,7.451,10.118,11.93,14.597l167.562,167.579
		l27.721-27.756L71.569,160.575c-2.599-2.581-4.924-5.418-6.906-8.426c-1.914-2.939-3.555-6.051-4.888-9.349
		c-1.298-3.179-2.289-6.58-2.939-9.981c-0.684-3.384-0.991-6.888-0.991-10.358c0-3.451,0.308-6.954,0.991-10.355
		c0.65-3.419,1.642-6.786,2.939-10.016c1.333-3.247,2.974-6.394,4.888-9.299c1.982-3.007,4.308-5.844,6.871-8.442l12.579-12.562
		c2.563-2.598,5.4-4.905,8.408-6.903c2.94-1.915,6.085-3.572,9.332-4.854c3.247-1.334,6.599-2.308,10.016-2.992
		c6.802-1.28,13.912-1.28,20.749,0c3.384,0.685,6.733,1.658,9.946,2.992c3.316,1.282,6.427,2.939,9.366,4.854
		c3.008,1.998,5.846,4.306,8.443,6.903l33.498,33.499l27.688-27.722l-33.499-33.499c-4.443-4.443-9.366-8.477-14.562-11.912
		c-5.128-3.351-10.597-6.188-16.271-8.494c-5.503-2.238-11.313-3.948-17.228-5.076c-11.655-2.239-23.859-2.239-35.55,0
		c-5.879,1.128-11.69,2.838-17.262,5.076c-5.639,2.307-11.109,5.144-16.202,8.494c-5.23,3.436-10.152,7.469-14.596,11.912
		L43.847,56.625c-4.444,4.444-8.478,9.35-11.93,14.597c-3.351,5.076-6.221,10.527-8.478,16.202
		c-2.256,5.571-3.965,11.383-5.127,17.262c-1.129,5.847-1.675,11.827-1.675,17.774c0,5.948,0.546,11.947,1.675,17.759
		C19.475,146.132,21.184,151.944,23.439,157.498z"/>
	<path d="M476.561,342.954c-2.291-5.64-5.128-11.107-8.478-16.201c-3.452-5.23-7.452-10.118-11.896-14.562L288.626,144.578
		l-27.755,27.721l167.56,167.58c2.599,2.598,4.923,5.4,6.905,8.408c1.914,2.939,3.59,6.085,4.854,9.366
		c1.299,3.212,2.323,6.562,3.008,9.981c0.615,3.417,0.957,6.904,0.957,10.323c0,3.521-0.342,6.973-0.957,10.391
		c-0.685,3.419-1.709,6.769-3.008,9.981c-1.265,3.281-2.94,6.427-4.854,9.366c-1.982,3.007-4.307,5.845-6.905,8.409l-12.544,12.579
		c-2.598,2.598-5.437,4.888-8.443,6.904c-2.905,1.914-6.05,3.555-9.332,4.854c-3.179,1.3-6.562,2.291-9.98,2.94
		c-6.837,1.3-13.912,1.3-20.715,0c-3.452-0.649-6.804-1.641-9.981-2.94c-3.315-1.299-6.46-2.939-9.366-4.854
		c-3.008-2.017-5.845-4.307-8.442-6.904l-33.465-33.499l-27.722,27.687l33.499,33.568c4.443,4.443,9.365,8.408,14.562,11.827
		c5.093,3.384,10.562,6.255,16.236,8.544c5.572,2.223,11.383,3.967,17.262,5.095c5.812,1.128,11.827,1.675,17.775,1.675
		c5.947,0,11.93-0.547,17.774-1.675c5.88-1.128,11.69-2.872,17.263-5.095c5.674-2.289,11.108-5.16,16.202-8.544
		c5.229-3.419,10.152-7.384,14.596-11.827l12.579-12.613c4.443-4.444,8.443-9.332,11.896-14.562
		c3.35-5.094,6.187-10.563,8.478-16.237c2.256-5.571,3.965-11.383,5.093-17.262c1.128-5.846,1.708-11.793,1.708-17.809
		c0-5.948-0.58-11.896-1.708-17.707C480.525,354.303,478.816,348.492,476.561,342.954z"/>
</g>
</svg>
